# xmcd
#
# Track frame offsets: 
#        150
#        11429
#        23888
#        35049
#        46647
#        55789
#        64233
#        79077
#        90700
#        102332
#        112826
#        124623
#        133979
#
# Disc length: 1957 seconds
#
# Revision: 5
# Processed by: cddbd v1.5.2PL0 Copyright (c) Steve Scherf et al.
# Submitted via: ExactAudioCopyFreeDBPlugin 1.0
#
DISCID=a307a30d
DTITLE=Robbie Fulks - 13 Hillbilly Giants
DYEAR=2000
DGENRE=Honky Tonk
TTITLE0=Southern Comfort
TTITLE1=Cocktails
TTITLE2=I Want To Be Mama'd
TTITLE3=By The Law Of My Heart
TTITLE4=Family Man
TTITLE5=Burn On Love Fire
TTITLE6=Jeannie's Afraid Of The Dark
TTITLE7=Donna On My Mind
TTITLE8=We Live A Long Time To Get Old
TTITLE9=Lotta Lotta Women
TTITLE10=Knot Hole
TTITLE11=Act Like A Married Man
TTITLE12=Bury The Bottle With Me
EXTD=
EXTT0=
EXTT1=
EXTT2=
EXTT3=
EXTT4=
EXTT5=
EXTT6=
EXTT7=
EXTT8=
EXTT9=
EXTT10=
EXTT11=
EXTT12=
PLAYORDER=
